<?xml version="1.0" encoding="UTF-8" standalone="no"?>
<!DOCTYPE svg PUBLIC "-//W3C//DTD SVG 1.1//EN" "http://www.w3.org/Graphics/SVG/1.1/DTD/svg11.dtd">
<svg width="100%" height="100%" viewBox="0 0 24 24" version="1.1" xmlns="http://www.w3.org/2000/svg" xmlns:xlink="http://www.w3.org/1999/xlink" xml:space="preserve" xmlns:serif="http://www.serif.com/" style="fill-rule:evenodd;clip-rule:evenodd;stroke-linejoin:round;stroke-miterlimit:2;">
    <path d="M12,3C12,3 5.814,8.34 2.357,11.232C2.154,11.416 2,11.684 2,12C2,12.553 2.447,13 3,13L5,13L5,20C5,20.553 5.447,21 6,21L9,21C9.553,21 10,20.552 10,20L10,16L14,16L14,20C14,20.552 14.447,21 15,21L18,21C18.553,21 19,20.553 19,20L19,13L21,13C21.553,13 22,12.553 22,12C22,11.684 21.846,11.416 21.617,11.232C18.184,8.34 12,3 12,3Z" style="fill:rgb(252,252,255);fill-rule:nonzero;"/>
</svg>
