<?xml version="1.0" encoding="UTF-8" standalone="no"?>
<!DOCTYPE svg PUBLIC "-//W3C//DTD SVG 1.1//EN" "http://www.w3.org/Graphics/SVG/1.1/DTD/svg11.dtd">
<svg width="100%" height="100%" viewBox="0 0 26 26" version="1.1" xmlns="http://www.w3.org/2000/svg" xmlns:xlink="http://www.w3.org/1999/xlink" xml:space="preserve" xmlns:serif="http://www.serif.com/" style="fill-rule:evenodd;clip-rule:evenodd;stroke-linejoin:round;stroke-miterlimit:2;">
    <g>
        <path d="M1.75,7.75L8.43,7.75C8.766,9.045 9.934,10.009 11.333,10.009C12.732,10.009 13.9,9.045 14.236,7.75L24.25,7.75C24.664,7.75 25,7.414 25,7C25,6.586 24.664,6.25 24.25,6.25L14.236,6.25C13.9,4.955 12.732,3.991 11.333,3.991C9.934,3.991 8.766,4.955 8.43,6.25L1.75,6.25C1.336,6.25 1,6.586 1,7C1,7.414 1.336,7.75 1.75,7.75ZM11.333,5.491C12.165,5.491 12.842,6.168 12.842,7C12.842,7.832 12.165,8.509 11.333,8.509C10.501,8.509 9.824,7.832 9.824,7C9.824,6.168 10.501,5.491 11.333,5.491Z" style="fill:rgb(252,252,255);fill-rule:nonzero;"/>
        <path d="M24.25,12.25L22.644,12.25C22.308,10.955 21.14,9.991 19.741,9.991C18.342,9.991 17.174,10.955 16.839,12.25L1.75,12.25C1.336,12.25 1,12.586 1,13C1,13.414 1.336,13.75 1.75,13.75L16.839,13.75C17.174,15.045 18.342,16.009 19.741,16.009C21.14,16.009 22.308,15.045 22.644,13.75L24.25,13.75C24.664,13.75 25,13.414 25,13C25,12.586 24.664,12.25 24.25,12.25ZM19.741,14.509C18.909,14.509 18.232,13.832 18.232,13C18.232,12.168 18.909,11.491 19.741,11.491C20.573,11.491 21.25,12.168 21.25,13C21.25,13.832 20.573,14.509 19.741,14.509Z" style="fill:rgb(252,252,255);fill-rule:nonzero;"/>
        <path d="M24.25,18.25L9.718,18.25C9.383,16.955 8.214,15.991 6.816,15.991C5.418,15.991 4.249,16.955 3.914,18.25L1.75,18.25C1.336,18.25 1,18.586 1,19C1,19.414 1.336,19.75 1.75,19.75L3.914,19.75C4.249,21.045 5.418,22.009 6.816,22.009C8.214,22.009 9.383,21.045 9.718,19.75L24.25,19.75C24.664,19.75 25,19.414 25,19C25,18.586 24.664,18.25 24.25,18.25ZM6.816,20.509C5.984,20.509 5.308,19.832 5.308,19C5.308,18.168 5.984,17.491 6.816,17.491C7.647,17.491 8.324,18.168 8.324,19C8.324,19.832 7.647,20.509 6.816,20.509Z" style="fill:rgb(252,252,255);fill-rule:nonzero;"/>
    </g>
</svg>
